<svg version="1.2" xmlns="http://www.w3.org/2000/svg" viewBox="0 0 840 800" width="840" height="800"><style></style><filter id="f0"><feFlood flood-color="#ffffff" flood-opacity="1" /><feBlend mode="normal" in2="SourceGraphic"/><feComposite in2="SourceAlpha" operator="in" /></filter><g filter="url(#f0)"><path fill-rule="evenodd" d="m542.8 127.7c29.2-33.8 48.9-80.9 43.5-127.7-42 1.6-92.9 26.8-123 60.6-27.1 30-50.7 77.8-44.4 123.8 46.9 3.4 94.8-22.8 123.9-56.7zm195.4 145.1c-49.1-68.8-125.5-78.3-152.7-79.4-65.1-6.3-127 36.7-159.9 36.7-33 0-83.9-35.7-137.8-34.7-71 0.9-136.3 39.4-172.9 100.2-73.6 122.4-18.8 303.8 53 403.1 35.1 48.5 76.9 103.2 131.8 101.2 52.9-2 72.9-32.7 136.8-32.7 64 0 82 32.7 137.9 31.7 56.9-1 93-49.5 127.8-98.2 40.3-56.4 56.9-111 57.8-113.8-1.2-0.5-110.9-40.8-112-161.9-1-101.2 86.2-149.8 90.2-152.2z"/></g></svg>