<svg version="1.2" xmlns="http://www.w3.org/2000/svg" viewBox="0 0 850 850" width="850" height="850"><style></style><filter id="f0"><feFlood flood-color="#29b255" flood-opacity="1" /><feBlend mode="normal" in2="SourceGraphic"/><feComposite in2="SourceAlpha" operator="in" /></filter><g filter="url(#f0)"><path  d="m399.9 24.9c-151.6 0-275 123.4-275 275 0 266.7 259.5 469.5 259.5 469.5 2.2 1.7 4.7 3.1 7.3 4 2.7 1 5.5 1.4 8.3 1.4 2.8 0 5.6-0.4 8.3-1.4 2.6-0.9 5.1-2.3 7.3-4 0 0 259.5-202.8 259.5-469.5 0-151.6-123.6-275-275.2-275zm0 50c124.6 0 225.2 100.4 225.2 225 0 218.2-197.6 390.6-225 413.9-27.3-23.2-225.1-195.6-225.1-413.9 0-124.6 100.4-225 224.9-225z"/><path  d="m399.9 174.9c-68.7 0-124.9 56.2-124.9 125 0 68.7 56.2 125.1 124.9 125.1 68.8 0 125.1-56.4 125.1-125.1 0-68.8-56.3-125-125.1-125zm0 50.1c41.7 0 75.1 33.2 75.1 74.9 0 41.7-33.4 75.1-75.1 75.1-41.7 0-74.9-33.4-74.9-75.1 0-41.7 33.2-74.9 74.9-74.9z"/></g></svg>