<svg xmlns="http://www.w3.org/2000/svg" xmlns:xlink="http://www.w3.org/1999/xlink" width="800" zoomAndPan="magnify" viewBox="0 0 600 599.999999" height="800" preserveAspectRatio="xMidYMid meet" version="1.0"><defs><clipPath id="50ab55ecb8"><path d="M 177.003906 178.539062 L 180.753906 178.539062 L 180.753906 182.289062 L 177.003906 182.289062 Z M 177.003906 178.539062 " clip-rule="nonzero"/></clipPath><clipPath id="637c384073"><path d="M 0.00390625 0.539062 L 3.753906 0.539062 L 3.753906 4.289062 L 0.00390625 4.289062 Z M 0.00390625 0.539062 " clip-rule="nonzero"/></clipPath><clipPath id="1f417ff9aa"><rect x="0" width="4" y="0" height="5"/></clipPath><clipPath id="e98557fa28"><path d="M 0.71875 0.480469 L 527.519531 0.480469 L 527.519531 599 L 0.71875 599 Z M 0.71875 0.480469 " clip-rule="nonzero"/></clipPath><clipPath id="886b9686a2"><rect x="0" width="528" y="0" height="600"/></clipPath></defs><g clip-path="url(#50ab55ecb8)"><g transform="matrix(1, 0, 0, 1, 177, 178)"><g clip-path="url(#1f417ff9aa)"><g clip-path="url(#637c384073)"><path fill="#cdcdcd" d="M 0.00390625 0.539062 L 3.753906 0.539062 L 3.753906 4.289062 L 0.00390625 4.289062 Z M 0.00390625 0.539062 " fill-opacity="1" fill-rule="nonzero"/></g></g></g></g><g transform="matrix(1, 0, 0, 1, 60, -0.000000000000034805)"><g clip-path="url(#886b9686a2)"><g clip-path="url(#e98557fa28)"><path fill="#ff4a4a" d="M 320.675781 118.5625 C 320.597656 98.699219 312.300781 81.949219 302.648438 65.753906 C 290.125 44.773438 274.96875 25.789062 257.816406 8.480469 C 256.542969 7.125 255.105469 5.925781 253.667969 4.808594 C 253.269531 4.492188 252.710938 4.492188 251.515625 4.09375 C 247.449219 44.773438 250 83.78125 272.257812 119.519531 C 265.316406 113.378906 258.535156 106.914062 251.277344 101.09375 C 235.640625 88.570312 220.167969 75.726562 203.8125 64.160156 C 195.515625 58.257812 185.707031 54.109375 176.132812 50.359375 C 155.472656 42.382812 135.6875 33.046875 117.261719 20.683594 C 116.625 20.207031 115.90625 19.886719 115.1875 19.566406 C 114.871094 19.40625 114.46875 19.40625 112.875 19.167969 C 112.714844 36.078125 117.742188 50.996094 127.394531 64.398438 C 137.046875 77.878906 150.6875 86.097656 165.203125 92.160156 C 154.035156 94.710938 142.550781 96.546875 131.542969 100.136719 C 96.523438 111.460938 69.558594 133.796875 47.941406 162.996094 C 23.132812 196.496094 8.773438 234.148438 3.667969 275.46875 C 0 304.746094 0.636719 334.101562 1.4375 363.457031 C 2.550781 405.019531 3.910156 446.65625 5.582031 488.21875 C 6.382812 508.640625 9.332031 528.742188 19.625 546.929688 C 36.695312 577.003906 62.222656 594.3125 96.839844 597.582031 C 121.730469 599.976562 145.339844 593.914062 168.554688 585.9375 C 203.015625 574.050781 235.324219 557.378906 267.308594 540.226562 C 297.941406 523.796875 327.855469 506.085938 356.175781 485.746094 C 398.929688 454.875 425.894531 413.953125 435.707031 362.023438 C 441.050781 333.941406 441.128906 305.785156 435.785156 277.625 C 435.625 276.585938 435.464844 275.628906 435.464844 275.152344 C 443.921875 277.945312 452.296875 281.613281 460.992188 283.449219 C 482.851562 288.074219 503.988281 285.28125 524.011719 275.152344 C 527.363281 273.476562 528 271.640625 526.324219 268.292969 C 520.34375 256.40625 513.402344 245.15625 504.707031 234.949219 C 492.023438 220.109375 475.429688 211.894531 456.765625 207.507812 C 435.148438 202.402344 413.371094 197.933594 391.59375 193.148438 C 393.746094 192.109375 396.140625 191.074219 398.375 189.796875 C 406.191406 185.410156 411.457031 178.628906 415.601562 170.890625 C 424.617188 154.140625 430.359375 136.269531 432.992188 117.445312 C 433.152344 116.007812 432.59375 114.492188 432.355469 113.058594 C 431 113.617188 429.402344 113.855469 428.367188 114.8125 C 418.875 123.109375 409.699219 131.882812 400.046875 139.941406 C 388.320312 149.753906 375.320312 157.410156 359.921875 159.964844 C 359.367188 160.042969 358.886719 160.203125 358.328125 160.28125 C 355.933594 160.523438 353.621094 160.679688 350.589844 161 C 351.230469 159.324219 351.628906 157.890625 352.1875 156.53125 C 365.585938 125.183594 378.667969 93.753906 392.46875 62.5625 C 402.042969 40.867188 396.140625 18.210938 376.195312 5.128906 C 373.246094 3.214844 369.816406 1.777344 366.386719 1.140625 C 360.722656 0.0234375 355.855469 2.097656 352.503906 6.964844 C 348.996094 12.070312 347.640625 17.734375 350.828125 23.476562 C 352.1875 25.871094 352.34375 27.941406 351.707031 30.574219 C 344.527344 58.65625 334.398438 85.695312 323.308594 112.421875 C 322.511719 114.253906 321.554688 116.410156 320.675781 118.5625 Z M 203.972656 544.058594 C 201.578125 543.5 199.027344 542.144531 196.714844 542.542969 C 188.257812 543.898438 181.078125 548.285156 174.21875 553.070312 C 171.507812 554.984375 171.984375 557.21875 175.175781 558.257812 C 177.96875 559.214844 181 559.53125 184.828125 560.332031 C 173.660156 563.601562 163.289062 566.632812 152.679688 569.664062 C 152.042969 565.277344 148.929688 564.558594 145.660156 565.195312 C 137.84375 566.710938 130.105469 568.386719 122.449219 570.382812 C 121.011719 570.78125 119.976562 572.695312 118.699219 573.890625 C 120.132812 575.007812 121.492188 576.921875 123.085938 577.160156 C 133.058594 579.078125 142.628906 578.039062 151.003906 571.578125 C 151.804688 570.941406 152.839844 570.542969 153.796875 570.300781 C 164.085938 567.910156 174.457031 565.59375 184.75 563.121094 C 190.890625 561.605469 197.03125 559.851562 203.175781 558.175781 C 198.546875 560.96875 193.683594 562.964844 188.738281 564.878906 C 166.003906 573.8125 143.027344 581.789062 118.378906 583.382812 C 93.492188 585.058594 70.914062 579.078125 52.167969 561.847656 C 38.371094 549.164062 29.675781 533.449219 24.730469 515.5 C 17.949219 491.167969 16.113281 466.121094 14.519531 441.074219 C 12.046875 403.660156 11.328125 366.167969 12.125 328.675781 C 12.921875 292.78125 17.390625 257.441406 30.3125 223.699219 C 43.074219 190.355469 61.503906 161 90.21875 138.984375 C 129.308594 108.988281 180.839844 106.835938 223.515625 136.03125 C 205.726562 127.816406 187.222656 122.472656 167.519531 121.195312 C 179.164062 125.183594 190.8125 129.25 202.457031 133.238281 C 202.378906 133.558594 202.296875 133.796875 202.21875 134.117188 C 193.125 132.523438 184.03125 130.847656 174.9375 129.25 C 174.855469 129.652344 174.695312 130.050781 174.617188 130.367188 C 190.011719 135.15625 205.328125 140.019531 220.167969 144.648438 C 212.746094 144.328125 204.851562 144.007812 196.875 143.609375 C 196.792969 144.007812 196.792969 144.328125 196.714844 144.726562 C 205.726562 146.5625 214.742188 148.714844 223.835938 150.152344 C 233.007812 151.667969 242.34375 152.464844 252.394531 153.660156 C 248.804688 155.417969 246.089844 156.773438 243.378906 158.128906 C 243.460938 158.449219 243.617188 158.765625 243.699219 159.085938 C 263.082031 153.980469 281.191406 158.128906 298.738281 166.585938 C 296.664062 166.585938 294.511719 166.585938 292.4375 166.585938 C 292.4375 166.742188 292.4375 166.902344 292.4375 166.984375 C 298.820312 168.65625 305.203125 170.332031 311.582031 172.089844 C 311.503906 172.246094 311.421875 172.488281 311.421875 172.648438 C 307.515625 172.167969 303.527344 171.769531 299.617188 171.289062 C 312.300781 174.242188 324.824219 177.113281 336.3125 183.894531 C 348.277344 190.992188 353.941406 202.640625 360.003906 214.285156 C 360.5625 214.046875 361.121094 213.726562 361.679688 213.488281 C 360.722656 209.898438 359.765625 206.390625 358.808594 202.800781 C 358.964844 202.640625 359.207031 202.480469 359.445312 202.320312 C 365.988281 209.738281 372.527344 217.238281 378.988281 224.65625 C 379.148438 224.578125 379.308594 224.578125 379.46875 224.496094 C 378.191406 221.785156 376.914062 219.074219 375.636719 216.28125 C 385.289062 224.65625 390.394531 235.824219 394.542969 247.550781 C 395.023438 247.3125 395.5 247.074219 396.058594 246.832031 C 393.109375 239.972656 390.15625 233.03125 387.125 226.171875 C 387.207031 226.011719 387.363281 225.933594 387.445312 225.773438 C 393.109375 232.554688 398.773438 239.253906 404.355469 246.035156 C 403.878906 246.515625 403.398438 246.914062 402.921875 247.390625 C 402.121094 246.035156 401.40625 244.679688 400.605469 243.324219 C 400.367188 243.5625 400.128906 243.800781 399.808594 243.960938 C 403.320312 255.289062 406.828125 266.617188 410.257812 277.945312 C 410.578125 277.945312 410.898438 277.945312 411.214844 277.945312 C 411.535156 274.195312 411.933594 270.445312 412.253906 266.136719 C 412.890625 268.050781 413.53125 269.40625 413.929688 270.921875 C 422.625 301.316406 423.660156 331.867188 416.800781 362.738281 C 408.265625 401.109375 387.84375 432.21875 358.886719 458.222656 C 357.851562 459.183594 356.492188 459.980469 355.21875 460.457031 C 339.183594 466.441406 323.148438 472.265625 307.117188 478.246094 C 304.324219 479.285156 301.53125 480.480469 298.738281 481.597656 C 317.085938 478.40625 334.15625 471.464844 351.386719 465.085938 C 345.644531 470.269531 339.742188 475.296875 333.839844 480.160156 C 332.960938 480.878906 331.765625 481.359375 330.648438 481.757812 C 318.761719 485.984375 306.875 490.054688 295.070312 494.28125 C 287.015625 497.152344 278.957031 500.105469 270.898438 503.054688 C 271.058594 503.535156 271.21875 503.933594 271.378906 504.410156 C 288.769531 498.828125 306.238281 493.242188 324.425781 487.421875 C 317.328125 492.445312 310.863281 497.074219 304.324219 501.621094 C 301.53125 503.535156 298.738281 505.847656 295.550781 506.964844 C 283.824219 510.871094 272.015625 514.304688 260.210938 517.8125 C 255.984375 519.089844 251.753906 520.285156 247.207031 521.640625 C 249.28125 514.941406 246.570312 510.871094 240.109375 510.316406 C 230.777344 509.515625 222.160156 511.988281 214.421875 517.09375 C 212.90625 518.132812 211.152344 520.523438 211.3125 522.039062 C 211.550781 523.636719 213.863281 525.789062 215.539062 526.109375 C 220.722656 526.988281 226.308594 528.34375 231.175781 527.226562 C 248.324219 523.316406 265.238281 518.453125 282.226562 513.902344 C 283.902344 513.503906 285.5 513.027344 287.171875 512.546875 C 281.988281 516.617188 276.722656 520.125 271.21875 523.316406 C 268.984375 524.59375 266.433594 525.550781 263.960938 526.1875 C 244.894531 531.375 225.828125 536.480469 206.84375 541.664062 C 205.808594 541.984375 205.011719 543.179688 204.132812 543.976562 C 221.28125 540.148438 238.511719 536.320312 255.503906 532.492188 C 236.28125 543.417969 217.292969 555.386719 194.558594 556.742188 C 196.632812 555.304688 199.347656 553.710938 201.820312 551.796875 C 204.132812 549.960938 205.726562 547.40625 203.972656 544.058594 Z M 389.519531 209.101562 C 402.601562 209.101562 415.125 209.101562 428.128906 209.101562 C 413.929688 206.550781 400.128906 204.074219 386.40625 201.601562 C 387.285156 201.042969 388.082031 201.042969 388.800781 201.125 C 415.203125 203.757812 440.730469 210.058594 465.460938 219.789062 C 488.113281 228.726562 506.144531 243.082031 518.347656 264.304688 C 519.304688 265.976562 520.101562 267.734375 521.21875 270.046875 C 496.96875 275.550781 473.4375 277.386719 449.746094 270.605469 C 468.890625 273.238281 487.875 271.324219 506.941406 269.886719 C 486.121094 269.167969 465.300781 269.167969 445.277344 262.308594 C 460.832031 263.902344 476.386719 265.578125 491.863281 267.175781 C 472.878906 262.070312 453.175781 260.472656 434.828125 252.894531 C 459.875 257.523438 484.84375 262.148438 509.890625 266.695312 C 509.972656 266.535156 509.972656 266.296875 510.050781 266.136719 C 489.949219 260.871094 469.847656 255.527344 449.746094 250.261719 C 449.824219 249.863281 449.90625 249.464844 450.0625 249.066406 C 464.261719 252.335938 478.460938 255.609375 492.660156 258.878906 C 492.742188 258.558594 492.820312 258.242188 492.980469 257.921875 C 469.289062 250.023438 445.597656 242.207031 421.984375 234.308594 C 422.144531 233.832031 422.304688 233.351562 422.464844 232.875 C 442.484375 238.617188 462.507812 244.359375 482.609375 250.105469 C 482.691406 249.945312 482.769531 249.785156 482.851562 249.625 C 464.980469 242.367188 447.113281 235.027344 429.882812 228.007812 C 441.929688 229.84375 454.054688 233.910156 465.859375 238.9375 C 477.503906 243.960938 488.914062 249.304688 500.480469 254.570312 C 497.128906 252.097656 493.699219 249.945312 490.1875 247.789062 C 465.859375 233.113281 439.136719 224.496094 412.09375 216.519531 C 404.4375 214.527344 397.175781 211.734375 389.519531 209.101562 Z M 278.238281 133.957031 C 278.078125 134.199219 277.917969 134.355469 277.761719 134.597656 C 274.25 132.441406 270.742188 130.367188 267.308594 128.214844 C 267.230469 128.375 267.152344 128.535156 266.992188 128.691406 C 269.941406 133.238281 272.894531 137.867188 275.925781 142.414062 C 275.605469 142.652344 275.289062 142.890625 274.96875 143.210938 C 266.113281 134.039062 257.339844 124.863281 248.484375 115.769531 C 248.40625 115.851562 248.246094 115.929688 248.164062 116.007812 C 252.871094 124.066406 257.578125 132.125 262.285156 140.179688 C 262.046875 140.339844 261.804688 140.5 261.566406 140.660156 C 251.914062 130.128906 242.261719 119.597656 232.609375 108.988281 C 232.53125 109.070312 232.449219 109.148438 232.371094 109.230469 C 239.230469 120.957031 246.171875 132.601562 253.03125 144.328125 C 252.792969 144.488281 252.554688 144.648438 252.234375 144.808594 C 240.347656 129.808594 228.382812 114.8125 216.496094 99.894531 C 216.257812 99.976562 216.097656 100.136719 215.859375 100.214844 C 220.246094 108.429688 224.714844 116.648438 229.101562 124.863281 C 221.523438 118.882812 213.945312 113.058594 206.527344 107.074219 C 205.011719 105.878906 203.652344 104.285156 202.617188 102.6875 C 195.4375 91.917969 187.78125 81.46875 177.808594 73.253906 C 166.242188 63.761719 153.957031 55.144531 141.910156 46.132812 C 136.566406 42.140625 131.222656 38.234375 125.957031 34.246094 C 126.914062 33.6875 127.3125 33.925781 127.710938 34.164062 C 139.4375 40.945312 150.6875 48.605469 162.890625 54.265625 C 194.558594 69.023438 224.953125 85.457031 251.039062 109.070312 C 260.132812 117.367188 269.144531 125.660156 278.238281 133.957031 Z M 361.359375 67.667969 C 361.757812 67.75 362.15625 67.90625 362.554688 67.988281 C 354.019531 92.078125 345.484375 116.089844 336.949219 140.179688 C 355.777344 102.527344 368.777344 62.484375 382.898438 22.121094 C 389.121094 28.5 391.433594 35.121094 389.519531 42.78125 C 388.320312 47.40625 386.488281 51.792969 384.652344 56.183594 C 373.164062 83.464844 361.519531 110.585938 350.191406 137.867188 C 347.082031 145.285156 344.847656 153.023438 342.054688 161.078125 C 334 159.964844 326.179688 158.925781 317.167969 157.648438 C 325.941406 149.355469 331.84375 140.738281 336.074219 131.007812 C 340.539062 120.714844 345.007812 110.347656 349.15625 99.894531 C 353.460938 89.285156 357.292969 78.519531 361.359375 67.667969 Z M 306.078125 142.574219 C 305.359375 142.734375 304.644531 142.972656 303.925781 143.210938 C 294.832031 107.714844 286.855469 71.816406 268.667969 39.511719 C 281.910156 71.019531 289.804688 103.964844 296.109375 137.46875 C 295.46875 136.75 294.832031 136.03125 294.59375 135.15625 C 291.800781 126.621094 288.449219 118.242188 286.375 109.46875 C 279.117188 79.234375 270.101562 49.640625 257.738281 21.082031 C 256.859375 19.089844 256.300781 16.933594 255.585938 14.859375 C 255.984375 14.621094 256.300781 14.460938 256.699219 14.222656 C 264.4375 24.511719 272.414062 34.5625 279.753906 45.09375 C 295.949219 68.308594 308.949219 92.875 312.222656 121.59375 C 312.9375 127.976562 313.417969 134.277344 309.269531 140.660156 C 305.441406 119.679688 300.65625 99.496094 293.234375 82.105469 C 297.222656 101.011719 301.691406 121.832031 306.078125 142.574219 Z M 387.207031 170.972656 C 379.628906 174.164062 372.367188 177.992188 363.59375 178.390625 C 369.976562 175.359375 375.878906 172.566406 381.78125 169.695312 C 381.699219 169.535156 381.621094 169.296875 381.542969 169.136719 C 374.679688 170.574219 367.742188 171.929688 360.882812 173.363281 C 360.882812 173.125 360.800781 172.886719 360.800781 172.566406 C 366.386719 170.332031 371.96875 168.019531 377.554688 165.785156 C 370.054688 166.503906 362.796875 168.019531 355.457031 168.738281 C 347.957031 169.535156 340.699219 167.941406 333.597656 165.148438 C 371.089844 169.855469 401.804688 158.207031 424.777344 127.417969 C 424.9375 127.976562 425.097656 128.292969 425.015625 128.453125 C 419.351562 144.089844 413.050781 159.40625 402.519531 172.566406 C 395.820312 180.941406 387.125 186.289062 376.277344 187.5625 C 386.246094 182.617188 393.425781 174.5625 400.289062 166.105469 C 390.238281 174.480469 380.265625 182.9375 366.386719 183.816406 C 374.203125 181.183594 381.460938 177.351562 387.207031 170.972656 Z M 360.242188 32.25 C 352.664062 75.246094 338.066406 115.53125 315.410156 152.863281 C 335.117188 114.492188 348.675781 73.730469 360.242188 32.25 Z M 355.777344 15.417969 C 355.695312 11.671875 359.046875 8.238281 363.113281 7.839844 C 368.9375 7.363281 373.484375 9.753906 376.835938 14.300781 C 379.226562 17.492188 378.667969 21.640625 375.636719 24.273438 C 371.96875 27.542969 367.902344 27.226562 363.753906 25.390625 C 359.285156 23.554688 356.335938 20.363281 355.777344 15.417969 Z M 255.265625 23.394531 C 255.664062 23.238281 255.984375 23.15625 256.382812 22.996094 C 267.789062 52.75 276.246094 83.222656 280.710938 114.8125 C 272.257812 84.339844 263.800781 53.867188 255.265625 23.394531 Z M 257.5 46.609375 C 257.816406 46.449219 258.214844 46.371094 258.535156 46.210938 C 262.523438 64.238281 266.511719 82.265625 270.5 100.296875 C 270.183594 100.375 269.863281 100.453125 269.542969 100.535156 C 261.964844 83.304688 259.574219 64.957031 257.5 46.609375 Z M 239.628906 516.933594 C 234.683594 523.476562 221.125 525.152344 216.097656 520.046875 C 223.515625 515.976562 231.175781 515.976562 239.628906 516.933594 Z M 179.003906 554.746094 C 178.84375 554.269531 178.765625 553.710938 178.605469 553.230469 C 183.710938 552.035156 188.816406 550.757812 193.921875 549.5625 C 194 549.960938 194.082031 550.359375 194.242188 550.757812 C 189.613281 553.949219 184.75 556.023438 179.003906 554.746094 Z M 138.003906 571.738281 C 138.003906 572.058594 138.082031 572.457031 138.082031 572.773438 C 133.535156 573.015625 128.988281 573.332031 124.363281 573.574219 C 124.363281 573.253906 124.28125 572.933594 124.28125 572.535156 C 128.828125 572.375 133.375 572.058594 138.003906 571.738281 Z M 138.003906 571.738281 " fill-opacity="1" fill-rule="evenodd"/></g><path fill="#ff4a4a" d="M 289.167969 396.480469 C 288.929688 403.980469 293.316406 407.089844 298.980469 404.140625 C 307.992188 399.433594 313.417969 391.695312 315.570312 381.964844 C 316.769531 376.539062 314.535156 372.550781 310.386719 370.636719 C 306.160156 368.722656 301.453125 370 297.941406 374.148438 C 292.4375 380.925781 289.886719 388.902344 289.167969 396.480469 Z M 295.628906 396.242188 C 296.585938 389.382812 299.296875 383.480469 304.242188 378.851562 C 306.160156 377.019531 307.675781 377.976562 307.992188 380.527344 C 308.550781 385.714844 301.292969 395.125 295.628906 396.242188 Z M 295.628906 396.242188 " fill-opacity="1" fill-rule="evenodd"/><path fill="#ff4a4a" d="M 239.949219 442.109375 C 239.949219 446.578125 242.101562 448.972656 245.613281 448.890625 C 247.6875 448.8125 249.839844 448.414062 251.675781 447.457031 C 259.492188 443.625 264.835938 437.324219 268.1875 429.425781 C 270.183594 424.800781 268.824219 420.175781 265.476562 417.542969 C 262.046875 414.828125 257.5 414.589844 253.667969 417.542969 C 245.453125 424.003906 241.703125 433.015625 239.949219 442.109375 Z M 247.289062 440.277344 C 248.804688 433.816406 251.914062 428.789062 256.699219 424.878906 C 257.5 424.164062 259.09375 424.242188 260.289062 424.320312 C 260.609375 424.320312 261.089844 425.835938 261.007812 426.636719 C 260.609375 431.980469 253.191406 439.476562 247.289062 440.277344 Z M 247.289062 440.277344 " fill-opacity="1" fill-rule="evenodd"/><path fill="#ff4a4a" d="M 312.9375 264.460938 C 314.054688 270.125 314.613281 275.390625 316.289062 280.417969 C 318.125 286 322.511719 286.480469 326.101562 281.691406 C 331.046875 275.070312 334.078125 267.574219 334.636719 259.355469 C 334.875 256.246094 334 252.65625 332.402344 249.945312 C 328.574219 243.484375 319.71875 243.960938 316.449219 250.980469 C 314.453125 255.207031 313.976562 260.074219 312.9375 264.460938 Z M 321.15625 275.789062 C 319 268.929688 319.242188 262.308594 321.953125 255.765625 C 322.351562 254.890625 324.105469 253.773438 324.585938 254.011719 C 325.542969 254.492188 326.738281 255.847656 326.820312 256.882812 C 326.980469 263.746094 325.382812 270.125 321.15625 275.789062 Z M 321.15625 275.789062 " fill-opacity="1" fill-rule="evenodd"/><path fill="#ff4a4a" d="M 362.796875 402.386719 C 363.113281 406.054688 362.554688 410.441406 366.785156 412.039062 C 370.933594 413.554688 373.484375 409.964844 375.398438 407.089844 C 378.75 402.066406 381.542969 396.640625 384.492188 391.296875 C 385.210938 390.019531 385.53125 388.585938 385.769531 387.148438 C 387.046875 380.128906 384.8125 374.863281 379.785156 373.109375 C 375.238281 371.515625 370.453125 373.988281 367.742188 380.925781 C 365.109375 387.789062 363.753906 395.046875 361.757812 402.226562 C 362.15625 402.144531 362.476562 402.304688 362.796875 402.386719 Z M 369.816406 403.421875 C 369.335938 403.34375 368.9375 403.183594 368.460938 403.101562 C 368.699219 400.3125 368.617188 397.441406 369.257812 394.726562 C 370.292969 390.417969 371.648438 386.191406 373.246094 382.042969 C 373.566406 381.085938 375.480469 380.449219 376.675781 380.367188 C 377.152344 380.289062 378.429688 382.042969 378.351562 382.921875 C 377.710938 390.660156 374.121094 397.199219 369.816406 403.421875 Z M 369.816406 403.421875 " fill-opacity="1" fill-rule="evenodd"/><path fill="#ff4a4a" d="M 337.269531 342.71875 C 337.1875 346.464844 337.03125 350.375 341.179688 352.289062 C 344.210938 353.726562 348.835938 351.96875 352.027344 348.222656 C 356.972656 342.476562 359.605469 335.855469 359.84375 328.277344 C 360.003906 322.773438 357.292969 319.023438 352.585938 317.75 C 348.597656 316.710938 344.449219 318.386719 342.375 323.332031 C 339.820312 329.476562 338.148438 336.015625 336.152344 342.316406 C 336.472656 342.476562 336.871094 342.558594 337.269531 342.71875 Z M 344.527344 343.992188 C 343.808594 337.691406 345.085938 332.347656 348.4375 327.480469 C 348.914062 326.761719 350.191406 326.203125 351.070312 326.203125 C 351.628906 326.203125 352.34375 327.402344 352.585938 328.199219 C 353.859375 332.585938 349.554688 341.519531 344.527344 343.992188 Z M 344.527344 343.992188 " fill-opacity="1" fill-rule="evenodd"/><path fill="#ff4a4a" d="M 129.867188 333.144531 C 130.984375 337.453125 131.621094 342 133.375 346.066406 C 135.769531 351.492188 141.351562 351.890625 144.78125 347.105469 C 151.246094 338.089844 153.160156 327.960938 151.003906 317.191406 C 149.808594 311.128906 144.226562 309.214844 138.960938 312.5625 C 132.816406 316.472656 131.542969 322.933594 130.664062 329.476562 C 130.503906 330.671875 130.664062 331.867188 130.664062 333.066406 C 130.425781 332.984375 130.183594 333.066406 129.867188 333.144531 Z M 137.285156 331.550781 C 138.082031 328.757812 138.878906 325.167969 140.234375 321.816406 C 140.636719 320.78125 142.46875 319.742188 143.585938 319.742188 C 144.464844 319.742188 145.980469 321.257812 146.140625 322.296875 C 147.335938 328.835938 146.699219 335.21875 142.710938 340.882812 C 141.273438 342.875 139.519531 342.398438 138.878906 340.324219 C 138.164062 337.769531 137.921875 335.140625 137.285156 331.550781 Z M 137.285156 331.550781 " fill-opacity="1" fill-rule="evenodd"/><path fill="#ff4a4a" d="M 274.089844 328.039062 C 274.089844 332.984375 276.324219 335.457031 279.992188 335.140625 C 282.386719 334.898438 285.097656 334.339844 287.09375 332.984375 C 294.191406 328.117188 299.695312 321.976562 300.65625 312.960938 C 301.054688 309.214844 299.617188 306.261719 296.109375 304.347656 C 292.519531 302.433594 289.007812 302.910156 286.054688 305.382812 C 278.71875 311.6875 275.367188 319.984375 274.089844 328.039062 Z M 281.351562 326.601562 C 282.386719 320.539062 285.179688 315.675781 289.886719 311.925781 C 291.480469 310.648438 293.234375 310.96875 293.316406 313.679688 C 293.476562 318.226562 286.535156 326.046875 281.351562 326.601562 Z M 281.351562 326.601562 " fill-opacity="1" fill-rule="evenodd"/><path fill="#ff4a4a" d="M 161.855469 522.441406 C 162.011719 518.691406 160.738281 515.660156 157.308594 513.824219 C 153.558594 511.910156 150.207031 513.105469 147.496094 515.820312 C 139.597656 523.554688 136.167969 533.289062 135.6875 544.058594 C 135.53125 548.523438 138.5625 550.4375 142.46875 549.082031 C 150.367188 546.371094 161.773438 530.734375 161.855469 522.441406 Z M 141.671875 542.300781 C 141.832031 534.324219 144.226562 528.261719 147.734375 522.597656 C 148.371094 521.5625 149.488281 520.523438 150.605469 519.964844 C 152.839844 518.851562 154.992188 520.207031 154.433594 522.519531 C 152.601562 530.257812 148.054688 536.238281 141.671875 542.300781 Z M 141.671875 542.300781 " fill-opacity="1" fill-rule="evenodd"/><path fill="#ff4a4a" d="M 135.371094 485.425781 C 135.6875 486.863281 135.929688 489.8125 136.804688 492.527344 C 138.164062 496.355469 141.433594 497.390625 144.304688 494.679688 C 152.441406 487.179688 157.066406 477.847656 157.464844 466.679688 C 157.625 461.734375 154.675781 458.464844 150.765625 457.507812 C 147.175781 456.628906 143.425781 458.542969 140.875 462.613281 C 136.726562 469.152344 135.6875 476.414062 135.371094 485.425781 Z M 141.832031 487.660156 C 140.394531 480.082031 140.953125 472.824219 144.542969 466.121094 C 145.101562 465.085938 147.175781 464.285156 148.453125 464.445312 C 149.25 464.527344 150.367188 466.761719 150.207031 467.875 C 149.332031 475.214844 146.777344 481.917969 141.832031 487.660156 Z M 141.832031 487.660156 " fill-opacity="1" fill-rule="evenodd"/><path fill="#ff4a4a" d="M 76.738281 353.804688 C 77.21875 355.878906 77.855469 360.105469 79.371094 363.9375 C 81.285156 368.5625 85.355469 369.199219 88.464844 365.371094 C 95.484375 356.835938 99.472656 347.023438 98.675781 335.777344 C 98.4375 332.1875 96.761719 329.394531 93.25 328.199219 C 89.582031 326.921875 86.390625 328.039062 83.839844 330.75 C 78.414062 336.574219 77.136719 343.914062 76.738281 353.804688 Z M 84.554688 360.105469 C 81.84375 352.847656 81.765625 345.75 84.238281 338.730469 C 84.636719 337.53125 85.433594 336.335938 86.390625 335.457031 C 88.785156 333.222656 92.054688 334.179688 92.214844 337.453125 C 92.535156 345.828125 90.0625 353.484375 84.554688 360.105469 Z M 84.554688 360.105469 " fill-opacity="1" fill-rule="evenodd"/><path fill="#ff4a4a" d="M 37.011719 411.082031 C 37.972656 416.585938 38.210938 420.972656 39.484375 425.121094 C 40.921875 429.828125 44.75 430.625 47.863281 426.796875 C 54.164062 418.976562 57.675781 409.964844 57.992188 399.832031 C 57.992188 398.957031 57.753906 397.996094 57.515625 397.121094 C 56.714844 393.449219 54.722656 390.820312 50.894531 390.019531 C 46.984375 389.222656 43.714844 391.058594 42.359375 394.40625 C 39.964844 399.992188 38.527344 406.054688 37.011719 411.082031 Z M 44.273438 420.253906 C 42.359375 413.152344 42.597656 406.132812 45.390625 399.355469 C 45.867188 398.238281 47.621094 397.679688 48.820312 396.882812 C 49.539062 398.15625 50.894531 399.433594 50.8125 400.628906 C 50.335938 407.648438 48.261719 414.269531 44.273438 420.253906 Z M 44.273438 420.253906 " fill-opacity="1" fill-rule="evenodd"/><path fill="#ff4a4a" d="M 81.046875 418.898438 C 81.125 420.652344 81.046875 422.40625 81.285156 424.082031 C 82.164062 430.144531 86.710938 432.140625 91.65625 428.46875 C 98.117188 423.683594 101.070312 416.742188 101.867188 408.925781 C 102.1875 405.574219 101.945312 401.988281 101.070312 398.714844 C 99.953125 394.410156 96.203125 392.652344 92.375 394.808594 C 89.503906 396.402344 86.390625 398.875 85.195312 401.667969 C 82.882812 407.011719 81.765625 412.914062 80.25 418.660156 C 80.410156 418.660156 80.726562 418.816406 81.046875 418.898438 Z M 88.066406 421.53125 C 85.355469 417.300781 86.390625 407.011719 89.902344 403.742188 C 91.734375 401.988281 93.96875 402.304688 94.765625 404.378906 C 96.28125 408.6875 92.453125 418.816406 88.066406 421.53125 Z M 88.066406 421.53125 " fill-opacity="1" fill-rule="evenodd"/><path fill="#ff4a4a" d="M 204.691406 286.082031 C 204.769531 289.828125 204.609375 293.976562 208.757812 295.574219 C 212.90625 297.167969 216.175781 294.617188 218.808594 291.664062 C 224.3125 285.441406 228.0625 278.421875 228.144531 269.964844 C 228.222656 263.265625 223.277344 259.675781 217.292969 262.628906 C 214.105469 264.222656 210.832031 267.09375 209.15625 270.285156 C 206.605469 275.070312 205.410156 280.574219 203.652344 285.761719 C 203.972656 285.839844 204.371094 286 204.691406 286.082031 Z M 212.507812 288.472656 C 210.515625 283.289062 212.746094 273.714844 216.578125 270.683594 C 217.453125 269.964844 219.050781 269.488281 220.085938 269.808594 C 220.882812 270.046875 221.683594 271.5625 221.839844 272.597656 C 222.796875 277.703125 217.613281 286.398438 212.507812 288.472656 Z M 212.507812 288.472656 " fill-opacity="1" fill-rule="evenodd"/><path fill="#ff4a4a" d="M 71.316406 551.875 C 71.074219 555.304688 71.394531 558.734375 75.144531 560.25 C 78.652344 561.605469 81.445312 559.613281 83.597656 557.300781 C 88.945312 551.636719 92.453125 545.015625 93.09375 537.195312 C 93.570312 531.851562 90.859375 527.945312 86.550781 526.585938 C 82.640625 525.390625 78.734375 527.226562 76.578125 532.410156 C 74.027344 538.554688 72.351562 545.09375 70.277344 551.476562 C 70.675781 551.636719 70.996094 551.796875 71.316406 551.875 Z M 77.457031 551.796875 C 76.738281 545.8125 77.9375 540.785156 80.566406 536.160156 C 81.125 535.28125 82.640625 534.804688 83.757812 534.484375 C 84 534.40625 84.957031 535.679688 85.113281 536.480469 C 85.914062 540.785156 82.003906 549.003906 77.457031 551.796875 Z M 77.457031 551.796875 " fill-opacity="1" fill-rule="evenodd"/><path fill="#ff4a4a" d="M 73.308594 283.289062 C 74.027344 286.238281 74.425781 289.269531 75.542969 291.984375 C 77.296875 295.972656 80.726562 296.769531 84.398438 294.457031 C 91.65625 289.828125 97.796875 273.953125 95.40625 265.660156 C 93.730469 259.757812 86.949219 257.761719 82.003906 261.910156 C 76.898438 266.136719 75.0625 272.121094 74.027344 278.34375 C 73.789062 279.9375 73.789062 281.53125 73.707031 283.128906 C 73.546875 283.207031 73.46875 283.207031 73.308594 283.289062 Z M 80.886719 288.554688 C 76.578125 283.046875 77.855469 271.800781 82.5625 268.292969 C 85.035156 266.375 88.304688 267.335938 88.226562 270.207031 C 87.828125 276.90625 85.355469 282.890625 80.886719 288.554688 Z M 80.886719 288.554688 " fill-opacity="1" fill-rule="evenodd"/><path fill="#ff4a4a" d="M 133.855469 399.914062 C 134.171875 402.625 134.015625 404.777344 134.8125 406.453125 C 135.929688 408.847656 137.363281 411.71875 139.519531 412.835938 C 142.46875 414.429688 145.421875 412.277344 147.496094 409.882812 C 152.441406 404.21875 155.234375 397.597656 156.269531 390.261719 C 156.507812 388.664062 156.507812 387.070312 156.507812 385.472656 C 156.429688 382.125 155.394531 379.09375 152.042969 377.65625 C 148.691406 376.21875 145.101562 376.699219 142.789062 379.25 C 139.917969 382.441406 137.523438 386.191406 135.847656 390.101562 C 134.414062 393.292969 134.332031 397.039062 133.855469 399.914062 Z M 140.316406 399.753906 C 141.671875 395.367188 142.710938 391.136719 144.304688 387.148438 C 144.78125 385.953125 147.414062 384.355469 148.214844 384.675781 C 149.570312 385.3125 151.085938 387.546875 150.925781 388.824219 C 150.367188 393.050781 149.328125 397.359375 147.8125 401.347656 C 147.097656 403.183594 144.863281 404.378906 143.347656 405.894531 C 142.390625 403.980469 141.351562 401.988281 140.316406 399.753906 Z M 140.316406 399.753906 " fill-opacity="1" fill-rule="evenodd"/><path fill="#ff4a4a" d="M 207.082031 471.308594 C 204.609375 472.742188 202.535156 473.460938 201.019531 474.816406 C 194.800781 480.558594 189.933594 487.261719 187.140625 495.316406 C 185.304688 500.664062 188.335938 504.09375 193.84375 502.738281 C 203.894531 500.34375 209.875 493.324219 213.226562 484.070312 C 214.023438 481.757812 213.464844 478.40625 212.429688 476.09375 C 211.628906 474.179688 209 472.980469 207.082031 471.308594 Z M 194.640625 494.28125 C 196.074219 487.023438 201.738281 480.242188 206.046875 480.480469 C 206.527344 485.90625 200.703125 493.003906 194.640625 494.28125 Z M 194.640625 494.28125 " fill-opacity="1" fill-rule="evenodd"/><path fill="#ff4a4a" d="M 186.582031 382.683594 C 187.539062 386.988281 187.859375 390.179688 188.976562 393.132812 C 190.492188 397.039062 193.84375 397.757812 197.429688 395.523438 C 204.53125 391.136719 210.914062 374.464844 208.597656 366.328125 C 207.402344 362.019531 203.015625 359.390625 198.945312 361.304688 C 196.15625 362.660156 192.964844 364.894531 191.6875 367.527344 C 189.296875 372.472656 188.019531 378.136719 186.582031 382.683594 Z M 193.761719 382.839844 C 194.800781 378.851562 195.515625 375.023438 196.875 371.515625 C 197.429688 370.15625 199.585938 369.441406 201.101562 368.402344 C 201.976562 370 203.8125 371.753906 203.652344 373.269531 C 203.335938 376.859375 202.535156 380.609375 201.101562 383.957031 C 200.222656 386.03125 197.910156 387.386719 196.234375 389.144531 C 195.359375 387.148438 194.558594 384.996094 193.761719 382.839844 Z M 193.761719 382.839844 " fill-opacity="1" fill-rule="evenodd"/><path fill="#ff4a4a" d="M 164.40625 245.636719 C 165.84375 248.429688 166.640625 252.257812 168.875 253.773438 C 172.144531 256.007812 175.335938 253.136719 177.808594 250.660156 C 183.789062 244.839844 188.578125 238.21875 189.695312 229.683594 C 190.253906 225.773438 189.535156 222.183594 185.546875 220.191406 C 181.476562 218.195312 177.648438 219.3125 174.539062 222.265625 C 168.074219 228.484375 165.683594 236.464844 164.40625 245.636719 Z M 172.542969 248.347656 C 172.222656 248.109375 171.824219 247.871094 171.507812 247.550781 C 170.789062 240.292969 172.144531 233.511719 176.53125 227.527344 C 177.410156 226.253906 180.042969 225.613281 181.71875 225.933594 C 182.59375 226.09375 183.871094 229.125 183.390625 230.402344 C 181.875 234.707031 180.042969 238.9375 177.808594 242.925781 C 176.53125 245.078125 174.296875 246.59375 172.542969 248.347656 Z M 172.542969 248.347656 " fill-opacity="1" fill-rule="evenodd"/><path fill="#ff4a4a" d="M 115.828125 222.582031 C 116.542969 222.34375 118.21875 222.105469 119.574219 221.464844 C 126.117188 218.273438 131.621094 213.726562 135.449219 207.507812 C 136.726562 205.351562 137.683594 202.640625 137.683594 200.085938 C 137.84375 193.945312 131.859375 190.277344 126.675781 193.464844 C 117.902344 198.972656 112.554688 207.265625 109.921875 217.160156 C 108.886719 221.066406 110.960938 222.902344 115.828125 222.582031 Z M 129.707031 199.527344 C 130.265625 204.875 123.964844 212.132812 116.785156 214.925781 C 118.140625 206.949219 124.363281 199.449219 129.707031 199.527344 Z M 129.707031 199.527344 " fill-opacity="1" fill-rule="evenodd"/><path fill="#ff4a4a" d="M 94.847656 492.84375 C 96.441406 495.078125 97.558594 498.1875 99.714844 499.148438 C 101.46875 499.863281 104.976562 498.589844 106.652344 497.074219 C 112.238281 491.886719 115.746094 485.265625 116.464844 477.609375 C 116.703125 475.214844 115.828125 472.265625 114.390625 470.269531 C 111.121094 465.5625 105.933594 465.882812 102.425781 470.429688 C 98.914062 475.054688 95.722656 485.425781 94.847656 492.84375 Z M 102.027344 491.648438 C 101.46875 485.507812 101.945312 480.71875 104.660156 476.414062 C 105.21875 475.535156 106.734375 475.136719 107.847656 474.738281 C 108.007812 474.65625 109.046875 476.171875 109.046875 476.890625 C 108.648438 482.234375 106.734375 487.023438 102.027344 491.648438 Z M 102.027344 491.648438 " fill-opacity="1" fill-rule="evenodd"/><path fill="#ff4a4a" d="M 261.246094 501.539062 C 269.144531 501.621094 281.191406 492.285156 282.867188 484.546875 C 283.664062 481.117188 282.945312 477.929688 279.835938 475.773438 C 276.882812 473.699219 273.691406 474.097656 271.378906 476.332031 C 266.035156 481.597656 260.691406 486.941406 256.222656 492.925781 C 252.792969 497.550781 255.425781 501.460938 261.246094 501.539062 Z M 262.761719 493.640625 C 265.792969 487.980469 268.90625 483.191406 275.289062 481.4375 C 276.085938 487.023438 270.421875 492.605469 262.761719 493.640625 Z M 262.761719 493.640625 " fill-opacity="1" fill-rule="evenodd"/><path fill="#ff4a4a" d="M 32.867188 515.5 C 33.265625 523.078125 35.417969 530.097656 39.484375 536.480469 C 40.523438 538.074219 42.996094 540.070312 44.273438 539.671875 C 45.949219 539.191406 48.101562 536.71875 48.179688 534.964844 C 48.5 527.226562 48.738281 519.410156 48.023438 511.671875 C 47.464844 506.246094 44.035156 503.695312 40.523438 503.933594 C 36.855469 504.171875 33.902344 507.683594 33.265625 512.628906 C 33.023438 513.664062 32.945312 514.542969 32.867188 515.5 Z M 40.761719 512.148438 C 44.511719 515.417969 45.789062 524.195312 43.554688 529.9375 C 40.042969 525.710938 38.527344 516.457031 40.761719 512.148438 Z M 40.761719 512.148438 " fill-opacity="1" fill-rule="evenodd"/><path fill="#ff4a4a" d="M 50.894531 472.902344 C 51.929688 477.527344 52.25 480.800781 53.367188 483.832031 C 55.042969 488.21875 59.109375 488.855469 61.980469 485.1875 C 67.167969 478.726562 69.320312 471.148438 68.921875 463.011719 C 68.839844 461.253906 67.964844 459.421875 66.925781 457.90625 C 63.816406 453.359375 58.550781 453.121094 56.078125 457.984375 C 53.605469 462.929688 52.328125 468.515625 50.894531 472.902344 Z M 60.304688 462.769531 C 63.738281 465.882812 62.539062 474.578125 58.3125 478.246094 C 55.121094 473.222656 56.078125 465.960938 60.304688 462.769531 Z M 60.304688 462.769531 " fill-opacity="1" fill-rule="evenodd"/><path fill="#ff4a4a" d="M 389.199219 349.738281 C 389.679688 350.613281 390.316406 353.328125 391.753906 353.804688 C 393.269531 354.363281 395.980469 353.566406 397.414062 352.371094 C 403.957031 346.785156 407.945312 339.527344 409.621094 331.070312 C 410.339844 327.5625 408.824219 324.6875 405.550781 323.253906 C 402.363281 321.898438 399.488281 322.933594 397.496094 325.644531 C 392.390625 332.507812 390.15625 340.324219 389.199219 349.738281 Z M 395.742188 344.632812 C 396.617188 339.207031 396.699219 333.222656 402.519531 328.597656 C 403 335.855469 399.171875 340.085938 395.742188 344.632812 Z M 395.742188 344.632812 " fill-opacity="1" fill-rule="evenodd"/><path fill="#ff4a4a" d="M 382.5 312.085938 C 383.773438 314.636719 384.492188 318.226562 386.566406 319.425781 C 389.679688 321.097656 392.867188 318.785156 395.261719 316.234375 C 399.890625 311.289062 402.203125 305.304688 402.519531 298.605469 C 402.679688 294.773438 401.003906 291.824219 397.257812 290.628906 C 393.585938 289.351562 390.796875 291.105469 388.722656 294.058594 C 385.050781 299.242188 383.617188 305.226562 382.5 312.085938 Z M 390.15625 310.410156 C 389.597656 303.230469 391.910156 298.207031 395.820312 297.886719 C 396.9375 303.152344 394.625 308.496094 390.15625 310.410156 Z M 390.15625 310.410156 " fill-opacity="1" fill-rule="evenodd"/><path fill="#ff4a4a" d="M 60.464844 307.9375 C 60.464844 306.980469 60.546875 306.101562 60.464844 305.144531 C 60.226562 301.714844 59.589844 298.363281 55.679688 297.246094 C 51.769531 296.210938 49.21875 298.683594 47.542969 301.554688 C 42.519531 309.929688 40.761719 319.023438 43.316406 328.597656 C 43.875 330.671875 46.1875 333.382812 48.023438 333.625 C 49.777344 333.863281 52.648438 331.867188 53.84375 330.035156 C 58.3125 323.492188 60.226562 315.914062 60.464844 307.9375 Z M 56.476562 311.847656 C 55.199219 316.550781 54.164062 321.097656 52.726562 325.40625 C 52.328125 326.601562 50.574219 327.402344 49.378906 328.359375 C 48.582031 327.082031 47.0625 325.644531 47.222656 324.449219 C 47.703125 319.902344 48.261719 315.277344 49.539062 310.808594 C 50.097656 308.734375 52.410156 307.21875 53.84375 305.382812 C 54.644531 307.457031 55.519531 309.53125 56.476562 311.847656 Z M 56.476562 311.847656 " fill-opacity="1" fill-rule="evenodd"/><path fill="#ff4a4a" d="M 361.039062 252.976562 C 362.476562 257.761719 363.433594 262.707031 365.429688 267.175781 C 367.582031 272.039062 370.613281 272.121094 373.644531 267.8125 C 377.792969 261.988281 379.308594 255.289062 378.511719 248.269531 C 377.871094 243.082031 374.363281 239.894531 369.976562 239.972656 C 365.988281 240.050781 363.035156 242.925781 362.15625 248.03125 C 361.839844 249.546875 361.917969 251.21875 361.839844 252.734375 C 361.597656 252.816406 361.28125 252.894531 361.039062 252.976562 Z M 369.816406 261.191406 C 366.945312 257.203125 366.863281 253.375 367.742188 249.386719 C 367.902344 248.507812 369.019531 247.871094 369.734375 247.152344 C 370.535156 247.949219 371.96875 248.589844 372.050781 249.464844 C 372.6875 253.375 372.925781 257.28125 369.816406 261.191406 Z M 369.816406 261.191406 " fill-opacity="1" fill-rule="evenodd"/><path fill="#ff4a4a" d="M 55.441406 242.527344 C 56.636719 244.917969 57.914062 247.3125 59.109375 249.785156 C 61.421875 248.347656 64.375 247.390625 65.96875 245.398438 C 70.675781 239.335938 74.347656 232.554688 74.824219 224.578125 C 75.0625 220.828125 74.027344 217.71875 69.878906 216.601562 C 65.96875 215.5625 63.496094 217.796875 61.742188 220.828125 C 57.992188 227.367188 56.714844 234.628906 55.441406 242.527344 Z M 63.257812 242.285156 C 62.378906 242.046875 61.582031 241.726562 60.707031 241.488281 C 62.300781 235.90625 63.816406 230.320312 65.570312 224.738281 C 65.808594 224.019531 67.324219 223.699219 68.285156 223.140625 C 68.601562 224.019531 69.398438 225.136719 69.160156 225.851562 C 67.246094 231.359375 65.171875 236.863281 63.257812 242.285156 Z M 63.257812 242.285156 " fill-opacity="1" fill-rule="evenodd"/><path fill="#ff4a4a" d="M 109.125 159.484375 C 109.046875 154.378906 106.734375 152.464844 102.746094 153.660156 C 93.171875 156.453125 87.109375 162.753906 85.035156 172.566406 C 84.636719 174.480469 85.273438 177.511719 86.628906 178.550781 C 87.90625 179.585938 91.019531 179.507812 92.773438 178.628906 C 99.792969 175.277344 104.816406 169.773438 108.328125 162.835938 C 108.808594 161.558594 108.964844 160.042969 109.125 159.484375 Z M 93.171875 171.449219 C 92.535156 170.972656 91.816406 170.492188 91.175781 170.015625 C 93.011719 166.664062 94.609375 163.234375 96.761719 160.121094 C 97.320312 159.324219 99.554688 159.5625 100.988281 159.324219 C 100.988281 160.601562 101.546875 162.277344 100.910156 163.074219 C 98.515625 166.027344 95.722656 168.65625 93.171875 171.449219 Z M 93.171875 171.449219 " fill-opacity="1" fill-rule="evenodd"/><path fill="#ff4a4a" d="M 262.207031 243.402344 C 263.320312 245.476562 264.039062 248.03125 265.792969 249.386719 C 268.269531 251.460938 271.300781 250.183594 273.453125 248.429688 C 279.4375 243.640625 282.226562 237.179688 281.988281 229.683594 C 281.910156 227.847656 279.753906 224.816406 278.078125 224.496094 C 275.527344 224.019531 272.015625 224.65625 270.183594 226.253906 C 265.238281 230.480469 263.320312 236.542969 262.207031 243.402344 Z M 270.261719 242.207031 C 269.785156 242.046875 269.304688 241.808594 268.824219 241.648438 C 269.785156 238.457031 270.660156 235.1875 271.777344 232.074219 C 272.015625 231.359375 273.371094 231.039062 274.171875 230.480469 C 274.570312 231.359375 275.445312 232.316406 275.367188 233.113281 C 275.046875 236.941406 273.691406 240.210938 270.261719 242.207031 Z M 270.261719 242.207031 " fill-opacity="1" fill-rule="evenodd"/><path fill="#ff4a4a" d="M 172.542969 187.484375 C 179.324219 186.445312 185.945312 182.699219 190.652344 175.917969 C 192.964844 172.648438 192.644531 168.339844 190.332031 165.945312 C 187.539062 163.074219 184.269531 163.554688 181.160156 164.988281 C 173.980469 168.339844 169.191406 174.082031 166.640625 181.5 C 165.042969 186.046875 166.480469 187.644531 172.542969 187.484375 Z M 171.664062 180.941406 C 171.824219 174.640625 176.292969 169.457031 180.679688 169.695312 C 183.234375 169.773438 184.269531 171.210938 182.914062 173.285156 C 180.359375 177.113281 176.929688 179.984375 171.664062 180.941406 Z M 171.664062 180.941406 " fill-opacity="1" fill-rule="evenodd"/><path fill="#ff4a4a" d="M 323.867188 450.328125 C 325.382812 449.769531 327.855469 449.289062 329.769531 448.09375 C 335.273438 444.742188 339.261719 439.878906 340.621094 433.574219 C 341.097656 431.5 339.902344 428.390625 338.386719 426.636719 C 336.472656 424.402344 333.199219 424.320312 330.726562 426.15625 C 324.105469 431.101562 320.039062 437.804688 318.285156 445.859375 C 317.644531 449.210938 320.4375 449.929688 323.867188 450.328125 Z M 327.378906 442.988281 C 326.738281 442.507812 326.019531 441.953125 325.382812 441.472656 C 327.136719 438.441406 328.734375 435.410156 330.726562 432.539062 C 331.207031 431.820312 332.800781 431.820312 333.839844 431.5 C 333.917969 432.539062 334.476562 433.972656 334 434.613281 C 332.003906 437.484375 329.609375 440.195312 327.378906 442.988281 Z M 327.378906 442.988281 " fill-opacity="1" fill-rule="evenodd"/><path fill="#ff4a4a" d="M 170.949219 136.671875 C 161.375 138.34375 153.878906 142.332031 147.8125 148.714844 C 147.097656 149.511719 146.539062 151.507812 147.015625 152.144531 C 147.734375 153.101562 149.410156 153.820312 150.6875 153.820312 C 159.222656 153.660156 166.640625 150.390625 173.179688 145.207031 C 174.777344 143.929688 176.132812 141.21875 175.894531 139.300781 C 175.65625 138.105469 172.304688 137.386719 170.949219 136.671875 Z M 170.949219 136.671875 " fill-opacity="1" fill-rule="evenodd"/><path fill="#ff4a4a" d="M 228.542969 208.304688 C 235.882812 207.347656 241.304688 203.359375 244.734375 196.976562 C 246.890625 193.066406 244.175781 188.761719 239.46875 188.042969 C 232.691406 187.003906 221.761719 197.214844 222.558594 203.996094 C 222.878906 207.347656 225.191406 208.625 228.542969 208.304688 Z M 231.015625 202.242188 C 230.695312 201.84375 230.457031 201.523438 230.136719 201.125 C 230.777344 197.933594 232.691406 195.699219 235.800781 194.503906 C 236.597656 194.183594 237.636719 194.664062 238.59375 194.824219 C 238.433594 195.699219 238.59375 196.898438 238.113281 197.296875 C 235.800781 199.128906 233.40625 200.644531 231.015625 202.242188 Z M 231.015625 202.242188 " fill-opacity="1" fill-rule="evenodd"/><path fill="#ff4a4a" d="M 48.023438 206.789062 C 47.304688 205.671875 46.425781 203.039062 44.992188 202.71875 C 43.554688 202.402344 40.84375 203.835938 39.964844 205.273438 C 35.257812 212.292969 32.707031 220.191406 32.066406 228.644531 C 31.988281 230.082031 33.265625 231.515625 33.902344 233.03125 C 35.257812 232.394531 37.011719 232.15625 37.890625 231.199219 C 43.632812 224.417969 46.507812 216.441406 48.023438 206.789062 Z M 48.023438 206.789062 " fill-opacity="1" fill-rule="evenodd"/><path fill="#ff4a4a" d="M 19.066406 448.574219 C 21.058594 455.511719 22.894531 462.453125 25.207031 469.3125 C 25.765625 470.828125 28.160156 471.785156 29.675781 472.980469 C 30.632812 471.386719 32.148438 469.871094 32.464844 468.195312 C 33.664062 460.855469 32.148438 453.675781 29.835938 446.738281 C 28.875 443.945312 28 439.796875 23.851562 440.515625 C 19.863281 441.074219 20.582031 445.222656 19.066406 448.574219 Z M 24.886719 448.015625 C 25.367188 447.855469 25.84375 447.773438 26.246094 447.613281 C 27.359375 452.480469 28.558594 457.265625 29.675781 462.132812 C 29.355469 462.214844 28.957031 462.292969 28.636719 462.371094 C 27.359375 457.585938 26.085938 452.800781 24.886719 448.015625 Z M 24.886719 448.015625 " fill-opacity="1" fill-rule="evenodd"/><path fill="#ff4a4a" d="M 12.605469 359.789062 C 13.640625 364.015625 14.519531 368.484375 15.792969 372.871094 C 16.195312 374.066406 17.949219 375.582031 19.066406 375.582031 C 20.183594 375.582031 21.9375 373.988281 22.335938 372.789062 C 25.128906 364.8125 26.003906 356.515625 24.011719 348.222656 C 23.613281 346.464844 21.296875 344.074219 19.703125 343.992188 C 18.1875 343.914062 15.714844 346.066406 15.078125 347.742188 C 13.878906 351.410156 13.480469 355.402344 12.605469 359.789062 Z M 19.464844 351.652344 C 19.863281 351.652344 20.261719 351.570312 20.660156 351.570312 C 22.335938 356.996094 22.574219 362.421875 19.464844 367.765625 C 19.464844 362.421875 19.464844 357.074219 19.464844 351.652344 Z M 19.464844 351.652344 " fill-opacity="1" fill-rule="evenodd"/><path fill="#ff4a4a" d="M 23.214844 291.503906 C 23.691406 294.058594 23.851562 296.769531 24.808594 299.164062 C 26.003906 302.273438 29.117188 302.753906 30.949219 300.039062 C 36.054688 292.460938 38.128906 283.925781 37.011719 274.832031 C 36.535156 270.921875 32.867188 269.964844 29.914062 272.839844 C 25.765625 276.746094 24.570312 282.089844 23.773438 287.515625 C 23.613281 288.792969 23.613281 290.148438 23.53125 291.503906 C 23.453125 291.503906 23.371094 291.503906 23.214844 291.503906 Z M 29.515625 294.855469 C 27.839844 289.75 29.753906 281.933594 32.945312 279.617188 C 34.460938 284.804688 33.105469 290.945312 29.515625 294.855469 Z M 29.515625 294.855469 " fill-opacity="1" fill-rule="evenodd"/><path fill="#ff4a4a" d="M 117.5 137.148438 C 125 136.269531 131.300781 134.835938 136.488281 130.609375 C 137.84375 129.492188 139.359375 126.699219 138.878906 125.503906 C 138.242188 124.066406 135.53125 122.789062 133.773438 122.871094 C 126.355469 123.109375 120.054688 126.378906 114.46875 131.007812 C 113.59375 131.722656 112.875 134.277344 113.355469 134.675781 C 114.628906 136.03125 116.542969 136.671875 117.5 137.148438 Z M 117.5 137.148438 " fill-opacity="1" fill-rule="evenodd"/><path fill="#ff4a4a" d="M 335.753906 208.304688 C 336.710938 211.097656 337.507812 214.765625 339.34375 217.796875 C 340.300781 219.390625 343.410156 220.828125 345.246094 220.589844 C 347.082031 220.347656 349.234375 218.117188 350.03125 216.28125 C 352.425781 210.855469 349.234375 202.160156 344.289062 199.050781 C 341.417969 197.214844 338.785156 197.773438 337.507812 200.886719 C 336.632812 202.878906 336.472656 205.113281 335.753906 208.304688 Z M 341.65625 204.394531 C 345.726562 206.867188 346.203125 209.898438 342.933594 213.488281 C 342.535156 210.695312 342.136719 207.90625 341.65625 204.394531 Z M 341.65625 204.394531 " fill-opacity="1" fill-rule="evenodd"/><path fill="#ff4a4a" d="M 316.449219 188.203125 C 316.769531 183.496094 314.933594 181.023438 311.824219 179.507812 C 308.152344 177.753906 304.800781 178.628906 301.929688 181.261719 C 299.378906 183.65625 299.21875 186.605469 300.574219 189.636719 C 301.132812 190.835938 301.53125 192.269531 302.410156 193.066406 C 304.5625 194.980469 307.59375 198.414062 309.191406 197.933594 C 311.824219 197.136719 313.738281 193.785156 315.652344 191.234375 C 316.449219 190.277344 316.371094 188.519531 316.449219 188.203125 Z M 303.84375 186.6875 C 306.078125 185.570312 307.515625 184.292969 308.390625 184.613281 C 309.667969 185.089844 311.503906 186.765625 311.421875 187.804688 C 311.265625 189.238281 309.589844 190.515625 308.632812 191.871094 C 307.277344 190.433594 306 189 303.84375 186.6875 Z M 303.84375 186.6875 " fill-opacity="1" fill-rule="evenodd"/><path fill="#ff4a4a" d="M 76.578125 164.988281 C 71.234375 162.996094 68.125 164.910156 65.492188 167.542969 C 60.226562 172.726562 57.992188 179.1875 57.675781 186.289062 C 58.074219 186.527344 58.550781 186.6875 58.949219 186.925781 C 64.695312 179.746094 70.4375 172.648438 76.578125 164.988281 Z M 76.578125 164.988281 " fill-opacity="1" fill-rule="evenodd"/><path fill="#ff4a4a" d="M 119.574219 293.019531 C 121.410156 286.878906 123.324219 280.816406 124.839844 274.671875 C 125.160156 273.238281 123.722656 271.480469 123.085938 269.808594 C 121.730469 270.84375 119.816406 271.640625 119.097656 273.078125 C 115.828125 279.460938 116.863281 286.082031 117.980469 292.699219 C 118.457031 292.78125 119.015625 292.941406 119.574219 293.019531 Z M 119.574219 293.019531 " fill-opacity="1" fill-rule="evenodd"/><path fill="#ff4a4a" d="M 352.824219 443.546875 C 347.480469 446.339844 342.453125 449.53125 339.421875 455.035156 C 339.023438 455.75 339.34375 457.585938 339.820312 457.746094 C 340.9375 458.144531 342.535156 458.382812 343.410156 457.824219 C 348.914062 454.714844 351.546875 449.609375 352.824219 443.546875 Z M 352.824219 443.546875 " fill-opacity="1" fill-rule="evenodd"/><path fill="#ff4a4a" d="M 66.050781 278.421875 C 60.464844 281.214844 59.828125 288.871094 63.496094 291.824219 C 64.054688 292.222656 66.609375 291.425781 66.609375 291.105469 C 66.609375 286.878906 66.289062 282.648438 66.050781 278.421875 Z M 66.050781 278.421875 " fill-opacity="1" fill-rule="evenodd"/><path fill="#ff4a4a" d="M 443.042969 220.75 C 455.328125 225.933594 467.613281 231.039062 480.855469 236.621094 C 468.652344 228.804688 456.84375 222.582031 443.523438 219.789062 C 443.363281 220.109375 443.203125 220.429688 443.042969 220.75 Z M 443.042969 220.75 " fill-opacity="1" fill-rule="evenodd"/></g></g></svg>