<svg version="1.2" xmlns="http://www.w3.org/2000/svg" viewBox="0 0 800 800" width="800" height="800"><style>.a{fill:#29b255}</style><path class="a" d="m766.7 400c0 202.5-164.2 366.7-366.7 366.7-202.5 0-366.7-164.2-366.7-366.7 0-202.5 164.2-366.7 366.7-366.7 202.5 0 366.7 164.2 366.7 366.7zm-666.5 0c0 165.6 134.2 299.8 299.8 299.8 165.6 0 299.8-134.2 299.8-299.8 0-165.6-134.2-299.8-299.8-299.8-165.6 0-299.8 134.2-299.8 299.8z"/><path class="a" d="m400 166.7c-18.4 0-33.3 14.9-33.3 33.3v215.6c0 0 0 8.6 4.2 15.2 2.8 5.5 7.2 10.3 13 13.7l154 88.9c16 9.2 36.3 3.7 45.5-12.2 9.2-15.9 3.8-36.3-12.2-45.5l-137.9-79.7v-196c0-18.4-14.9-33.3-33.3-33.3z"/></svg>