<svg version="1.2" xmlns="http://www.w3.org/2000/svg" viewBox="0 0 800 800" width="800" height="800"><style>.a{fill:#29b355;stroke:#000;stroke-linecap:round;stroke-linejoin:round;stroke-width:66.7}</style><path class="a" d="m100 183.3c0 285.4 231.3 516.7 516.7 516.7q19.3 0 38.2-1.4c14.5-1.1 21.8-1.6 28.4-5.4 5.5-3.1 10.6-8.7 13.4-14.4 3.3-6.9 3.3-14.9 3.3-30.9v-93.9c0-13.4 0-20.2-2.2-25.9-2-5.1-5.2-9.7-9.3-13.2-4.6-4.1-11-6.4-23.6-11l-106.9-38.9c-14.7-5.3-22.1-8-29.1-7.5-6.1 0.4-12 2.5-17.1 6-5.7 4.1-9.7 10.8-17.8 24.2l-27.3 45.6c-88.4-40-160-111.7-200-200l45.6-27.3c13.4-8.1 20.1-12.1 24.2-17.8 3.5-5.1 5.6-11 6-17.1 0.5-7-2.2-14.4-7.5-29.1l-38.9-106.9c-4.6-12.6-6.9-19-11-23.6-3.5-4.2-8.1-7.3-13.2-9.3-5.7-2.2-12.5-2.2-25.9-2.2h-93.9c-16 0-24 0-30.9 3.3-5.7 2.7-11.3 7.9-14.4 13.4-3.8 6.6-4.3 13.9-5.4 28.4q-1.4 18.9-1.4 38.2z"/></svg>