<svg xmlns="http://www.w3.org/2000/svg" xmlns:xlink="http://www.w3.org/1999/xlink" width="800" zoomAndPan="magnify" viewBox="0 0 600 599.999999" height="800" preserveAspectRatio="xMidYMid meet" version="1.0"><path fill="#000000" d="M 600.105469 300.054688 C 600.105469 304.964844 599.984375 309.871094 599.746094 314.777344 C 599.503906 319.679688 599.144531 324.578125 598.660156 329.464844 C 598.179688 334.351562 597.578125 339.222656 596.859375 344.082031 C 596.136719 348.9375 595.300781 353.773438 594.339844 358.589844 C 593.382812 363.40625 592.308594 368.195312 591.113281 372.960938 C 589.921875 377.722656 588.613281 382.453125 587.1875 387.152344 C 585.761719 391.851562 584.222656 396.515625 582.566406 401.136719 C 580.914062 405.761719 579.144531 410.34375 577.265625 414.878906 C 575.386719 419.414062 573.398438 423.902344 571.296875 428.34375 C 569.199219 432.78125 566.992188 437.167969 564.675781 441.496094 C 562.363281 445.828125 559.941406 450.097656 557.417969 454.3125 C 554.894531 458.523438 552.265625 462.671875 549.539062 466.753906 C 546.808594 470.835938 543.984375 474.851562 541.058594 478.792969 C 538.132812 482.738281 535.113281 486.609375 531.996094 490.40625 C 528.882812 494.199219 525.675781 497.917969 522.378906 501.558594 C 519.082031 505.195312 515.695312 508.75 512.222656 512.222656 C 508.75 515.695312 505.195312 519.082031 501.558594 522.378906 C 497.917969 525.675781 494.199219 528.882812 490.40625 531.996094 C 486.609375 535.113281 482.738281 538.132812 478.792969 541.058594 C 474.851562 543.984375 470.835938 546.808594 466.753906 549.539062 C 462.671875 552.265625 458.523438 554.894531 454.3125 557.417969 C 450.097656 559.941406 445.828125 562.363281 441.496094 564.675781 C 437.167969 566.992188 432.78125 569.199219 428.34375 571.296875 C 423.902344 573.398438 419.414062 575.386719 414.878906 577.265625 C 410.34375 579.144531 405.761719 580.914062 401.136719 582.566406 C 396.515625 584.222656 391.851562 585.761719 387.152344 587.1875 C 382.453125 588.613281 377.722656 589.921875 372.960938 591.113281 C 368.195312 592.308594 363.40625 593.382812 358.589844 594.339844 C 353.773438 595.300781 348.9375 596.136719 344.082031 596.859375 C 339.222656 597.578125 334.351562 598.179688 329.464844 598.660156 C 324.578125 599.144531 319.679688 599.503906 314.777344 599.746094 C 309.871094 599.984375 304.964844 600.105469 300.054688 600.105469 C 295.144531 600.105469 290.234375 599.984375 285.332031 599.746094 C 280.425781 599.503906 275.53125 599.144531 270.644531 598.660156 C 265.757812 598.179688 260.882812 597.578125 256.027344 596.859375 C 251.167969 596.136719 246.332031 595.300781 241.515625 594.339844 C 236.699219 593.382812 231.910156 592.308594 227.144531 591.113281 C 222.382812 589.921875 217.652344 588.613281 212.953125 587.1875 C 208.253906 585.761719 203.59375 584.222656 198.96875 582.566406 C 194.34375 580.914062 189.765625 579.144531 185.226562 577.265625 C 180.691406 575.386719 176.203125 573.398438 171.765625 571.296875 C 167.324219 569.199219 162.941406 566.992188 158.609375 564.675781 C 154.277344 562.363281 150.007812 559.941406 145.796875 557.417969 C 141.582031 554.894531 137.4375 552.265625 133.351562 549.539062 C 129.269531 546.808594 125.257812 543.984375 121.3125 541.058594 C 117.367188 538.132812 113.496094 535.113281 109.703125 531.996094 C 105.90625 528.882812 102.1875 525.675781 98.550781 522.378906 C 94.910156 519.082031 91.355469 515.695312 87.882812 512.222656 C 84.410156 508.75 81.027344 505.195312 77.726562 501.558594 C 74.429688 497.917969 71.222656 494.199219 68.109375 490.40625 C 64.992188 486.609375 61.972656 482.738281 59.046875 478.792969 C 56.121094 474.851562 53.296875 470.835938 50.566406 466.753906 C 47.839844 462.671875 45.214844 458.523438 42.6875 454.3125 C 40.164062 450.097656 37.746094 445.828125 35.429688 441.496094 C 33.113281 437.167969 30.90625 432.78125 28.808594 428.34375 C 26.707031 423.902344 24.71875 419.414062 22.839844 414.878906 C 20.960938 410.34375 19.195312 405.761719 17.539062 401.136719 C 15.886719 396.515625 14.34375 391.851562 12.921875 387.152344 C 11.496094 382.453125 10.183594 377.722656 8.992188 372.960938 C 7.800781 368.195312 6.722656 363.40625 5.765625 358.589844 C 4.808594 353.773438 3.96875 348.9375 3.246094 344.082031 C 2.527344 339.222656 1.925781 334.351562 1.445312 329.464844 C 0.964844 324.578125 0.601562 319.679688 0.363281 314.777344 C 0.121094 309.871094 0 304.964844 0 300.054688 C 0 295.144531 0.121094 290.234375 0.363281 285.332031 C 0.601562 280.425781 0.964844 275.53125 1.445312 270.644531 C 1.925781 265.757812 2.527344 260.882812 3.246094 256.027344 C 3.96875 251.167969 4.808594 246.332031 5.765625 241.515625 C 6.722656 236.699219 7.800781 231.910156 8.992188 227.144531 C 10.183594 222.382812 11.496094 217.652344 12.921875 212.953125 C 14.34375 208.253906 15.886719 203.59375 17.539062 198.96875 C 19.195312 194.34375 20.960938 189.765625 22.839844 185.226562 C 24.71875 180.691406 26.707031 176.203125 28.808594 171.765625 C 30.90625 167.324219 33.113281 162.941406 35.429688 158.609375 C 37.746094 154.277344 40.164062 150.007812 42.6875 145.796875 C 45.214844 141.582031 47.839844 137.4375 50.566406 133.351562 C 53.296875 129.269531 56.121094 125.257812 59.046875 121.3125 C 61.972656 117.367188 64.992188 113.496094 68.109375 109.703125 C 71.222656 105.90625 74.429688 102.1875 77.726562 98.550781 C 81.027344 94.910156 84.410156 91.355469 87.882812 87.882812 C 91.355469 84.410156 94.910156 81.027344 98.550781 77.726562 C 102.1875 74.429688 105.90625 71.222656 109.703125 68.109375 C 113.496094 64.992188 117.367188 61.972656 121.3125 59.046875 C 125.257812 56.121094 129.269531 53.296875 133.351562 50.566406 C 137.4375 47.839844 141.582031 45.214844 145.796875 42.6875 C 150.007812 40.164062 154.277344 37.746094 158.609375 35.429688 C 162.941406 33.113281 167.324219 30.90625 171.765625 28.808594 C 176.203125 26.707031 180.691406 24.71875 185.226562 22.839844 C 189.765625 20.960938 194.34375 19.195312 198.96875 17.539062 C 203.59375 15.886719 208.253906 14.34375 212.953125 12.921875 C 217.652344 11.496094 222.382812 10.183594 227.144531 8.992188 C 231.910156 7.800781 236.699219 6.722656 241.515625 5.765625 C 246.332031 4.808594 251.167969 3.96875 256.027344 3.246094 C 260.882812 2.527344 265.757812 1.925781 270.644531 1.445312 C 275.53125 0.964844 280.425781 0.601562 285.332031 0.363281 C 290.234375 0.121094 295.144531 0 300.054688 0 C 304.964844 0 309.871094 0.121094 314.777344 0.363281 C 319.679688 0.601562 324.578125 0.964844 329.464844 1.445312 C 334.351562 1.925781 339.222656 2.527344 344.082031 3.246094 C 348.9375 3.96875 353.773438 4.808594 358.589844 5.765625 C 363.40625 6.722656 368.195312 7.800781 372.960938 8.992188 C 377.722656 10.183594 382.453125 11.496094 387.152344 12.921875 C 391.851562 14.34375 396.515625 15.886719 401.136719 17.539062 C 405.761719 19.195312 410.34375 20.960938 414.878906 22.839844 C 419.414062 24.71875 423.902344 26.707031 428.34375 28.808594 C 432.78125 30.90625 437.167969 33.113281 441.496094 35.429688 C 445.828125 37.746094 450.097656 40.164062 454.3125 42.6875 C 458.523438 45.214844 462.671875 47.839844 466.753906 50.566406 C 470.835938 53.296875 474.851562 56.121094 478.792969 59.046875 C 482.738281 61.972656 486.609375 64.992188 490.40625 68.109375 C 494.199219 71.222656 497.917969 74.429688 501.558594 77.726562 C 505.195312 81.027344 508.75 84.410156 512.222656 87.882812 C 515.695312 91.355469 519.082031 94.910156 522.378906 98.550781 C 525.675781 102.1875 528.882812 105.90625 531.996094 109.703125 C 535.113281 113.496094 538.132812 117.367188 541.058594 121.3125 C 543.984375 125.257812 546.808594 129.269531 549.539062 133.351562 C 552.265625 137.4375 554.894531 141.582031 557.417969 145.796875 C 559.941406 150.007812 562.363281 154.277344 564.675781 158.609375 C 566.992188 162.941406 569.199219 167.324219 571.296875 171.765625 C 573.398438 176.203125 575.386719 180.691406 577.265625 185.226562 C 579.144531 189.765625 580.914062 194.34375 582.566406 198.96875 C 584.222656 203.59375 585.761719 208.253906 587.1875 212.953125 C 588.613281 217.652344 589.921875 222.382812 591.113281 227.144531 C 592.308594 231.910156 593.382812 236.699219 594.339844 241.515625 C 595.300781 246.332031 596.136719 251.167969 596.859375 256.027344 C 597.578125 260.882812 598.179688 265.757812 598.660156 270.644531 C 599.144531 275.53125 599.503906 280.425781 599.746094 285.332031 C 599.984375 290.234375 600.105469 295.144531 600.105469 300.054688 Z M 600.105469 300.054688 " fill-opacity="1" fill-rule="nonzero"/><path fill="#25f4ee" d="M 260.222656 257.15625 L 260.222656 240.878906 C 254.761719 240.132812 249.21875 239.679688 243.570312 239.679688 C 175.445312 239.679688 120.027344 295.097656 120.027344 363.222656 C 120.027344 405.027344 140.914062 442.007812 172.78125 464.386719 C 152.210938 442.300781 140.007812 412.726562 140.007812 380.25 C 140.007812 313.109375 193.453125 258.703125 260.222656 257.15625 Z M 260.222656 257.15625 " fill-opacity="1" fill-rule="nonzero"/><path fill="#25f4ee" d="M 263.125 437.023438 C 293.527344 437.023438 318.675781 412.488281 319.796875 382.378906 L 320.0625 113.738281 L 368.765625 113.738281 C 368.765625 113.738281 368.6875 113.367188 368.6875 113.367188 C 367.671875 107.851562 367.113281 102.148438 367.113281 96.339844 L 300 96.339844 L 299.894531 365.355469 C 298.773438 395.488281 273.96875 419.652344 243.570312 419.652344 C 234.113281 419.652344 225.238281 417.28125 217.40625 413.179688 C 227.664062 427.378906 244.316406 437.050781 263.152344 437.050781 Z M 263.125 437.023438 " fill-opacity="1" fill-rule="nonzero"/><path fill="#25f4ee" d="M 460.523438 205.445312 L 460.523438 189.671875 C 441.765625 189.671875 424.316406 184.101562 409.664062 174.539062 C 422.691406 189.511719 440.410156 201.128906 460.523438 205.417969 Z M 460.523438 205.445312 " fill-opacity="1" fill-rule="nonzero"/><path fill="#fe2c55" d="M 409.664062 174.566406 C 395.382812 158.152344 386.695312 136.757812 386.695312 113.339844 L 368.417969 113.339844 C 373.160156 138.917969 388.640625 160.871094 409.664062 174.566406 Z M 409.664062 174.566406 " fill-opacity="1" fill-rule="nonzero"/><path fill="#fe2c55" d="M 243.570312 306.261719 C 212.449219 306.261719 186.765625 332.078125 186.765625 363.195312 C 186.765625 384.859375 199.421875 403.695312 217.378906 413.152344 C 210.691406 403.882812 206.695312 392.53125 206.695312 380.25 C 206.695312 349.128906 232.007812 323.820312 263.125 323.820312 C 268.933594 323.820312 274.503906 324.777344 279.777344 326.429688 L 279.777344 257.902344 C 274.316406 257.15625 268.773438 256.707031 263.125 256.707031 C 262.140625 256.707031 261.179688 256.757812 260.222656 256.785156 L 259.957031 256.785156 C 259.957031 256.785156 259.769531 308.660156 259.769531 308.660156 C 254.492188 307.007812 249.378906 306.289062 243.570312 306.289062 Z M 243.570312 306.261719 " fill-opacity="1" fill-rule="nonzero"/><path fill="#fe2c55" d="M 460.523438 204.644531 L 460.203125 204.589844 L 460.203125 256.414062 C 425.382812 256.414062 393.039062 244.957031 366.714844 226.066406 L 366.714844 363.195312 C 366.714844 431.324219 311.695312 486.394531 243.570312 486.394531 C 217.246094 486.394531 192.84375 478.429688 172.753906 464.332031 C 195.320312 488.550781 227.476562 503.765625 263.125 503.765625 C 331.253906 503.765625 386.667969 448.347656 386.667969 380.222656 L 386.667969 243.808594 C 412.992188 262.699219 445.257812 273.835938 480.054688 273.835938 L 480.054688 206.722656 C 473.339844 206.722656 466.8125 206.003906 460.496094 204.644531 Z M 460.523438 204.644531 " fill-opacity="1" fill-rule="nonzero"/><path fill="#ffffff" d="M 367.113281 363.195312 L 367.113281 226.785156 C 393.4375 245.675781 425.703125 256.8125 460.496094 256.8125 L 460.496094 204.644531 C 440.382812 200.328125 422.691406 189.539062 409.636719 174.566406 C 388.613281 160.84375 373.429688 138.917969 368.6875 113.339844 L 319.53125 113.339844 L 319.421875 382.355469 C 318.304688 412.488281 293.5 436.652344 263.097656 436.652344 C 244.261719 436.652344 227.609375 427.351562 217.351562 413.125 C 199.394531 403.667969 187.113281 384.859375 187.113281 363.171875 C 187.113281 332.050781 212.425781 306.742188 243.542969 306.742188 C 249.351562 306.742188 254.921875 307.699219 260.195312 309.351562 L 260.195312 256.730469 C 193.402344 258.304688 139.554688 313.054688 139.554688 380.222656 C 139.554688 412.699219 152.183594 442.273438 172.726562 464.359375 C 192.789062 478.453125 217.195312 486.742188 243.542969 486.742188 C 311.667969 486.742188 367.085938 431.324219 367.085938 363.195312 Z M 367.113281 363.195312 " fill-opacity="1" fill-rule="nonzero"/></svg>