<svg version="1.2" xmlns="http://www.w3.org/2000/svg" viewBox="0 0 800 800" width="800" height="800"><style>.a{fill:#ff5151}</style><path fill-rule="evenodd" class="a" d="m659.4 130.6c11.6-2.7 19.7-5.5 26.4-8.3 9.3-4 17-8.8 29.2-16.8 10.2-6.7 23.3-7.3 34.1-1.5 10.8 5.8 17.6 17.1 17.6 29.3 0 36.1-4.5 65.6-14.9 91.6-8.8 21.8-21 39.6-35.7 55.8-6.3 112.1-38.7 200.1-88.3 266.8-51.4 69.1-119.8 113.4-192 138.2-71.9 24.7-147.8 30.2-215.9 21.9-67.6-8.4-130.1-30.7-173.7-64.6-11.9-9.3-16.1-25.5-10.2-39.4 5.9-13.9 20.4-22.1 35.4-19.9 42.8 6.1 84.1-3.7 118-17.6-6.6-3.6-12.9-7.6-18.8-11.6-30.9-21.4-55.9-50.5-67.1-72.9-4.6-9.3-4.7-20.2-0.1-29.6 2.3-4.8 5.8-8.9 10-12-45.2-37.3-63.4-88.8-63.4-123.3 0-10.3 4.7-20 12.8-26.3 3.4-2.7 7.3-4.6 11.3-5.8-3.4-9.9-6-19.9-8-29.5-8.9-42.9-8.1-91.3 1.6-129.9 3.3-13.1 14.2-23 27.7-24.9 13.4-1.9 26.7 4.6 33.5 16.4 35.9 62.2 102.1 100.3 163.8 122.8 29 10.6 55.8 17.4 76 21.5 4.3-40.7 15.7-74.2 33.1-100.9 23-35.1 55.1-55.9 89.5-65.2 59.5-16 125.4 2.2 168.1 35.7zm-301.1 196.3c-22.9-4.5-54.2-12.2-88.5-24.8-45.2-16.5-97.8-42.3-141.8-82.2 0.8 7.3 1.9 14.6 3.4 21.7 7.4 35.7 21.1 55.7 33.5 61.9 15.2 7.6 22.3 25.5 16.4 41.4-8 21.6-29 23.4-48.1 18.6 15.3 23 42.9 45.9 88.9 53.6 15.9 2.7 27.6 16.3 27.9 32.4 0.3 16.1-11 30-26.8 33.2l-29 5.8c4.4 3.8 9.2 7.6 14.4 11.2 23.2 16.1 46.5 23 66.6 18 15.1-3.8 30.8 3.3 37.9 17.2 7 13.9 3.5 30.8-8.4 40.7-21.5 17.9-46.6 32.2-71.7 44.1-11.8 5.6-25 11.1-39.3 16 11 2.3 22.5 4.2 34.3 5.7 59 7.2 124.7 2.4 186.2-18.8 61.2-21 117.8-58 160.1-114.9 42.3-56.8 71.8-135.5 75.7-242.3 0.3-8.4 3.8-16.4 9.8-22.3 15-15 27.3-32.2 33.4-52.6-10.6 3.3-22.6 6.2-36.9 8.9-10.9 2.1-22.1-1.3-29.9-9.2-25.5-25.4-75.9-42.2-117.7-30.9-19.7 5.3-37.7 16.8-51.1 37.3-13.8 21-24.3 53.7-24.3 103.4 0 9.4-4 18.4-11 24.7-16.6 15-44.5 6.2-64 2.2z"/></svg>