<svg version="1.2" xmlns="http://www.w3.org/2000/svg" viewBox="0 0 800 800" width="800" height="800"><style>.a{fill:#ff5151}</style><path class="a" d="m200.5 266.9c3.8-30.2 42.9-71.1 74-66.6h-0.1c30.3 5.7 54.2 57.8 67.7 81.2 9.6 17 3.4 34.2-5.5 41.4-12.1 9.7-30.9 23.1-27 36.5 7.1 23.9 90.4 107.3 131.4 131 15.5 8.9 26.8-14.7 36.4-26.8 6.9-9.4 24.2-14.9 41.1-5.7 25.3 14.7 49.1 31.8 71.2 51.1 11 9.2 13.6 22.8 5.9 37.2-13.4 25.3-52.3 58.7-80.5 51.9-49.2-11.9-248.4-89.1-312.4-312.8-3.6-10.6-2.7-14.6-2.2-18.4z"/><path fill-rule="evenodd" class="a" d="m400 766.7c-40.8 0-63.4-4.4-100-16.7l-70.2 35.1c-44.3 22.2-96.5-10.1-96.5-59.6v-75.5c-71.7-66.9-100-144.1-100-250 0-202.5 164.2-366.7 366.7-366.7 202.5 0 366.7 164.2 366.7 366.7 0 202.5-164.2 366.7-366.7 366.7zm-200-41.2l94.9-47.5 26.3 8.8c30.5 10.2 45.9 13.2 78.8 13.2 165.7 0 300-134.3 300-300 0-165.7-134.3-300-300-300-165.7 0-300 134.3-300 300 0 91.1 23 149.2 78.8 201.2l21.2 19.8z"/></svg>